<?xml version="1.0" encoding="UTF-8" standalone="no"?>
<!-- Generator: Adobe Illustrator 16.0.0, SVG Export Plug-In . SVG Version: 6.00 Build 0)  -->

<svg
   version="1.1"
   id="Capa_1"
   x="0px"
   y="0px"
   width="31.627px"
   height="31.626px"
   viewBox="0 0 31.627 31.626"
   style="enable-background:new 0 0 31.627 31.626;"
   xml:space="preserve"
   sodipodi:docname="bomb-antivirus-danger-symbol.svg"
   inkscape:export-filename="/home/antonio/Documentos/Universidad/PLUD/proyecto/img/icons/bomb-antivirus-danger-symbol.png"
   inkscape:export-xdpi="194.27054"
   inkscape:export-ydpi="194.27054"
   inkscape:version="1.1 (c4e8f9ed74, 2021-05-24)"
   xmlns:inkscape="http://www.inkscape.org/namespaces/inkscape"
   xmlns:sodipodi="http://sodipodi.sourceforge.net/DTD/sodipodi-0.dtd"
   xmlns="http://www.w3.org/2000/svg"
   xmlns:svg="http://www.w3.org/2000/svg"><defs
   id="defs39" /><sodipodi:namedview
   id="namedview37"
   pagecolor="#ffffff"
   bordercolor="#666666"
   borderopacity="1.0"
   inkscape:pageshadow="2"
   inkscape:pageopacity="0.0"
   inkscape:pagecheckerboard="0"
   showgrid="false"
   inkscape:zoom="14.756545"
   inkscape:cx="-2.8123115"
   inkscape:cy="19.415114"
   inkscape:window-width="1920"
   inkscape:window-height="1007"
   inkscape:window-x="0"
   inkscape:window-y="0"
   inkscape:window-maximized="1"
   inkscape:current-layer="layer1" />

<g
   inkscape:groupmode="layer"
   id="layer2"
   inkscape:label="Layer 2"
   style="display:inline"><ellipse
     style="fill:#33323d;fill-opacity:1;stroke:#33323d;stroke-opacity:0.999973"
     id="path19075"
     cx="11.408603"
     cy="14.051913"
     rx="8.6852283"
     ry="8.452055" /></g><g
   id="g6">
</g>
<g
   id="g8">
</g>
<g
   id="g10">
</g>
<g
   id="g12">
</g>
<g
   id="g14">
</g>
<g
   id="g16">
</g>
<g
   id="g18">
</g>
<g
   id="g20">
</g>
<g
   id="g22">
</g>
<g
   id="g24">
</g>
<g
   id="g26">
</g>
<g
   id="g28">
</g>
<g
   id="g30">
</g>
<g
   id="g32">
</g>
<g
   id="g34">
</g>
<g
   inkscape:groupmode="layer"
   id="layer1"
   inkscape:label="Layer 1"
   style="display:inline"><circle
     id="path1466"
     style="fill:#000000;stroke:#000000"
     cx="10.313673"
     cy="14.035997"
     r="0.016924692" /><g
     id="g4"
     style="fill:#ffffff;fill-opacity:1;stroke:none">
	<path
   d="M 31.123,4.396 C 28.384,2.643 26.053,2.992 24.021,4.15 22.244,2.632 20.576,2.582 20.576,2.582 L 18.042,5.118 C 13.356,2.863 7.57,3.667 3.688,7.55 c -4.917,4.917 -4.917,12.891 0,17.807 4.917,4.918 12.889,4.918 17.806,0 3.885,-3.883 4.688,-9.67 2.436,-14.354 l 2.535,-2.536 c 0,0 -0.035,-1.192 -0.957,-2.633 1.403,-0.674 2.792,-0.655 4.438,0.4 0.507,0.325 1.184,0.177 1.508,-0.331 0.324,-0.507 0.18,-1.181 -0.331,-1.507 z M 11.714,8.655 C 11.467,8.708 5.641,10 4.843,15.39 4.755,15.984 4.199,16.398 3.602,16.308 3.362,16.273 3.151,16.162 2.992,16.001 2.756,15.765 2.63,15.424 2.683,15.067 c 1.023,-6.913 8.28,-8.487 8.588,-8.55 0.591,-0.121 1.167,0.259 1.291,0.848 0.12,0.591 -0.258,1.167 -0.848,1.29 z m 3.739,-0.694 c -0.421,0.422 -1.107,0.421 -1.528,0 -0.422,-0.422 -0.422,-1.106 0,-1.528 0.421,-0.422 1.107,-0.421 1.528,0 0.422,0.421 0.422,1.107 0,1.528 z"
   id="path2"
   style="fill:#ffffff;fill-opacity:1;stroke:none" />
</g></g></svg>
