<?xml version="1.0" encoding="UTF-8" standalone="no"?>
<svg
   id="Bold"
   enable-background="new 0 0 24 24"
   height="512"
   viewBox="0 0 24 24"
   width="512"
   version="1.1"
   sodipodi:docname="chest.svg"
   inkscape:version="1.1 (c4e8f9ed74, 2021-05-24)"
   inkscape:export-filename="/home/antonio/Documentos/Universidad/PLUD/proyecto/img/icons/chest.png"
   inkscape:export-xdpi="12"
   inkscape:export-ydpi="12"
   xmlns:inkscape="http://www.inkscape.org/namespaces/inkscape"
   xmlns:sodipodi="http://sodipodi.sourceforge.net/DTD/sodipodi-0.dtd"
   xmlns="http://www.w3.org/2000/svg"
   xmlns:svg="http://www.w3.org/2000/svg">
  <defs
     id="defs33" />
  <sodipodi:namedview
     id="namedview31"
     pagecolor="#ffffff"
     bordercolor="#666666"
     borderopacity="1.0"
     inkscape:pageshadow="2"
     inkscape:pageopacity="0.0"
     inkscape:pagecheckerboard="0"
     showgrid="false"
     inkscape:zoom="1.2890625"
     inkscape:cx="258.71515"
     inkscape:cy="299.05455"
     inkscape:window-width="1920"
     inkscape:window-height="1007"
     inkscape:window-x="0"
     inkscape:window-y="0"
     inkscape:window-maximized="1"
     inkscape:current-layer="Bold" />
  <g
     id="g4"
     style="fill:#ffffff;fill-opacity:1">
    <path
       d="m12 9.5c-.83 0-1.5.67-1.5 1.5v4.5h3v-4.5c0-.83-.67-1.5-1.5-1.5zm.75 3.75c0 .41-.34.75-.75.75s-.75-.34-.75-.75v-1.5c0-.41.34-.75.75-.75s.75.34.75.75z"
       id="path2"
       style="fill:#ffffff;fill-opacity:1" />
  </g>
  <g
     id="g8"
     style="fill:#ffffff;fill-opacity:1">
    <path
       d="m5 10h-4.95l.73-6.6c.15-1.37 1.31-2.4 2.69-2.4h1.53z"
       id="path6"
       style="fill:#ffffff;fill-opacity:1" />
  </g>
  <g
     id="g12">
    <path
       d="m9.18 10h-2.68v-9h11v9h-2.68c-.41-1.16-1.52-2-2.82-2s-2.41.84-2.82 2z"
       id="path10"
       style="fill:#ffffff;fill-opacity:1" />
  </g>
  <g
     id="g16"
     style="fill:#ffffff;fill-opacity:1">
    <path
       d="m9 13h-8.81l-.12-1.5h8.93z"
       id="path14"
       style="fill:#ffffff;fill-opacity:1" />
  </g>
  <g
     id="g20"
     style="fill:#ffffff;fill-opacity:1">
    <path
       d="m23.76 14.5-.37 5.97c-.09 1.42-1.28 2.53-2.71 2.53h-17.16c-1.39 0-2.58-1.09-2.7-2.48l-.5-6.02h8.68v1.75c0 .41.34.75.75.75h4.5c.41 0 .75-.34.75-.75v-1.75z"
       id="path18"
       style="fill:#ffffff;fill-opacity:1" />
  </g>
  <g
     id="g24"
     style="fill:#ffffff;fill-opacity:1">
    <path
       d="m15 11.5h8.95l-.09 1.5h-8.86z"
       id="path22"
       style="fill:#ffffff;fill-opacity:1" />
  </g>
  <g
     id="g28"
     style="fill:#ffffff;fill-opacity:1">
    <path
       d="m23.95 10h-4.95v-9h1.53c1.38 0 2.54 1.03 2.69 2.4z"
       id="path26"
       style="fill:#ffffff;fill-opacity:1" />
  </g>
</svg>
