<svg height="512" viewBox="0 0 74 74" width="512" xmlns="http://www.w3.org/2000/svg"><g id="Numbers"><text fill="rgb(0,0,0)" font-family="ArialMT, Arial" font-size="18" transform="translate(31.995 -266.544)">5<tspan x="-5.005" y="124">15</tspan><tspan x="-5.005" y="248">25</tspan><tspan x="-5.005" y="372">35</tspan><tspan x="-5.005" y="496">45</tspan><tspan x="-5.005" y="620">55</tspan><tspan x="-5.005" y="744">65</tspan><tspan x="-5.005" y="868">75</tspan><tspan x="-5.005" y="992">85</tspan><tspan x="-5.005" y="1116">95</tspan><tspan x="-10.011" y="1240">105</tspan><tspan letter-spacing="-.074em" x="-9.343" y="1364">1</tspan><tspan x="-.668" y="1364">15</tspan><tspan x="-10.011" y="1488">125</tspan><tspan x="-10.011" y="1612">135</tspan><tspan x="-10.011" y="1736">145</tspan><tspan x="-10.011" y="1860">155</tspan><tspan x="-10.011" y="1984">165</tspan><tspan x="-10.011" y="2108">175</tspan><tspan x="-10.011" y="2232">185</tspan><tspan x="-10.011" y="2356">195</tspan><tspan x="-10.011" y="2480">205</tspan><tspan x="-10.011" y="2604">215</tspan><tspan x="-10.011" y="2728">225</tspan><tspan x="-10.011" y="2852">235</tspan><tspan x="-10.011" y="2976">245</tspan><tspan x="-10.011" y="3100">255</tspan><tspan x="-10.011" y="3224">265</tspan><tspan x="-10.011" y="3348">275</tspan><tspan x="-10.011" y="3472">285</tspan><tspan x="-10.011" y="3596">295</tspan></text></g><g id="_2_PT" data-name="2 PT"><path d="m37 72a35 35 0 1 1 35-35 35.04 35.04 0 0 1 -35 35zm0-68a33 33 0 1 0 33 33 33.037 33.037 0 0 0 -33-33z"/><path d="m28.44 59a1 1 0 0 1 -.925-1.379l5.97-14.579-12.062-2.542a1 1 0 0 1 -.509-1.677l22.937-23.523a1 1 0 0 1 1.643 1.073l-6.2 15.35 13.23 2.005a1 1 0 0 1 .547 1.706l-23.933 23.283a1 1 0 0 1 -.698.283zm-4.825-20.084 11.457 2.417a1 1 0 0 1 .719 1.357l-4.6 11.243 19.039-18.528-12.492-1.893a1 1 0 0 1 -.777-1.363l4.775-11.814z"/></g></svg>