<?xml version="1.0" encoding="UTF-8" standalone="no"?>
<svg
   xmlns:dc="http://purl.org/dc/elements/1.1/"
   xmlns:cc="http://creativecommons.org/ns#"
   xmlns:rdf="http://www.w3.org/1999/02/22-rdf-syntax-ns#"
   xmlns:svg="http://www.w3.org/2000/svg"
   xmlns="http://www.w3.org/2000/svg"
   xmlns:sodipodi="http://sodipodi.sourceforge.net/DTD/sodipodi-0.dtd"
   xmlns:inkscape="http://www.inkscape.org/namespaces/inkscape"
   version="1.1"
   id="Capa_1"
   x="0px"
   y="0px"
   viewBox="0 0 32 32"
   style="enable-background:new 0 0 32 32;"
   xml:space="preserve"
   sodipodi:docname="exit.svg"
   inkscape:version="1.0.2 (e86c870879, 2021-01-15, custom)"
   inkscape:export-filename="/home/antonio/Documentos/Universidad/PLUD/proyecto/img/icons/exit.png"
   inkscape:export-xdpi="192"
   inkscape:export-ydpi="192"><metadata
   id="metadata42"><rdf:RDF><cc:Work
       rdf:about=""><dc:format>image/svg+xml</dc:format><dc:type
         rdf:resource="http://purl.org/dc/dcmitype/StillImage" /></cc:Work></rdf:RDF></metadata><defs
   id="defs40" /><sodipodi:namedview
   pagecolor="#ffffff"
   bordercolor="#666666"
   borderopacity="1"
   objecttolerance="10"
   gridtolerance="10"
   guidetolerance="10"
   inkscape:pageopacity="0"
   inkscape:pageshadow="2"
   inkscape:window-width="1920"
   inkscape:window-height="1007"
   id="namedview38"
   showgrid="false"
   inkscape:zoom="22.34375"
   inkscape:cx="16"
   inkscape:cy="15.955245"
   inkscape:window-x="0"
   inkscape:window-y="0"
   inkscape:window-maximized="1"
   inkscape:current-layer="Capa_1"
   inkscape:document-rotation="0" />
<g
   id="g5">
	<g
   id="x_x5F_alt">
		<path
   style="fill:#030104;"
   d="M16,0C7.164,0,0,7.164,0,16s7.164,16,16,16s16-7.164,16-16S24.836,0,16,0z M23.914,21.086    l-2.828,2.828L16,18.828l-5.086,5.086l-2.828-2.828L13.172,16l-5.086-5.086l2.828-2.828L16,13.172l5.086-5.086l2.828,2.828    L18.828,16L23.914,21.086z"
   id="path2" />
	</g>
</g>
<g
   id="g7">
</g>
<g
   id="g9">
</g>
<g
   id="g11">
</g>
<g
   id="g13">
</g>
<g
   id="g15">
</g>
<g
   id="g17">
</g>
<g
   id="g19">
</g>
<g
   id="g21">
</g>
<g
   id="g23">
</g>
<g
   id="g25">
</g>
<g
   id="g27">
</g>
<g
   id="g29">
</g>
<g
   id="g31">
</g>
<g
   id="g33">
</g>
<g
   id="g35">
</g>
<path
   style="fill:#ffffff;stroke-width:0.0447552"
   d="m 15.015385,31.951283 c -0.09846,-0.0097 -0.398743,-0.03891 -0.667292,-0.06494 C 12.04629,31.663246 9.6811529,30.860425 7.6531469,29.61382 3.8999632,27.306756 1.2428286,23.531053 0.36305531,19.254836 0.08975772,17.926448 -0.00507466,16.707718 0.05145645,15.25035 0.27400558,9.5130473 3.752678,4.2128676 8.9734266,1.6566457 15.109296,-1.3476446 22.442724,-0.12868712 27.278488,4.6993007 c 2.237805,2.2342064 3.794026,5.1315836 4.381855,8.1581513 0.248738,1.280677 0.271648,1.545713 0.271648,3.142548 0,1.596835 -0.02291,1.861871 -0.271648,3.142548 -0.929755,4.787048 -4.209893,9.043909 -8.628792,11.198177 -1.685623,0.821762 -3.401106,1.32031 -5.330852,1.549238 -0.410738,0.04873 -2.360688,0.09325 -2.685314,0.06132 z m -1.544055,-10.558277 2.528376,-2.528673 2.539949,2.539657 2.53995,2.539656 1.432284,-1.431758 1.432283,-1.43176 L 21.404401,18.540064 18.86463,16 21.404401,13.459936 23.944172,10.919872 22.51184,9.4880636 21.079507,8.0562556 18.539851,10.595912 16.000195,13.135568 13.460295,10.59596 10.920395,8.0563536 9.4881114,9.4881123 8.0558277,10.919872 10.595599,13.459936 13.13537,16 10.595686,18.539977 8.0560018,21.079954 9.476864,22.500816 c 0.781474,0.781475 1.431038,1.420862 1.443476,1.420862 0.01244,0 1.160383,-1.137902 2.55099,-2.528672 z"
   id="path44" /></svg>
