<?xml version="1.0" encoding="UTF-8" standalone="no"?>
<svg
   xmlns:dc="http://purl.org/dc/elements/1.1/"
   xmlns:cc="http://creativecommons.org/ns#"
   xmlns:rdf="http://www.w3.org/1999/02/22-rdf-syntax-ns#"
   xmlns:svg="http://www.w3.org/2000/svg"
   xmlns="http://www.w3.org/2000/svg"
   xmlns:sodipodi="http://sodipodi.sourceforge.net/DTD/sodipodi-0.dtd"
   xmlns:inkscape="http://www.inkscape.org/namespaces/inkscape"
   version="1.1"
   id="Capa_1"
   x="0px"
   y="0px"
   width="369.793px"
   height="369.792px"
   viewBox="0 0 369.793 369.792"
   style="enable-background:new 0 0 369.793 369.792;"
   xml:space="preserve"
   sodipodi:docname="options.svg"
   inkscape:version="1.0.2 (e86c870879, 2021-01-15, custom)"
   inkscape:export-filename="/home/antonio/Documentos/Universidad/PLUD/proyecto/img/icons/options.png"
   inkscape:export-xdpi="16.95982"
   inkscape:export-ydpi="16.95982"><metadata
   id="metadata45"><rdf:RDF><cc:Work
       rdf:about=""><dc:format>image/svg+xml</dc:format><dc:type
         rdf:resource="http://purl.org/dc/dcmitype/StillImage" /></cc:Work></rdf:RDF></metadata><defs
   id="defs43" /><sodipodi:namedview
   pagecolor="#ffffff"
   bordercolor="#666666"
   borderopacity="1"
   objecttolerance="10"
   gridtolerance="10"
   guidetolerance="10"
   inkscape:pageopacity="0"
   inkscape:pageshadow="2"
   inkscape:window-width="1920"
   inkscape:window-height="1007"
   id="namedview41"
   showgrid="false"
   inkscape:zoom="1.9335194"
   inkscape:cx="184.8965"
   inkscape:cy="184.896"
   inkscape:window-x="0"
   inkscape:window-y="0"
   inkscape:window-maximized="1"
   inkscape:current-layer="Capa_1" />
<g
   id="g8">
	<g
   id="g6">
		<g
   id="g4">
			<path
   d="M320.83,140.434l-1.759-0.627l-6.87-16.399l0.745-1.685c20.812-47.201,19.377-48.609,15.925-52.031L301.11,42.61     c-1.135-1.126-3.128-1.918-4.846-1.918c-1.562,0-6.293,0-47.294,18.57L247.326,60l-16.916-6.812l-0.679-1.684     C210.45,3.762,208.475,3.762,203.677,3.762h-39.205c-4.78,0-6.957,0-24.836,47.825l-0.673,1.741l-16.828,6.86l-1.609-0.669     C92.774,47.819,76.57,41.886,72.346,41.886c-1.714,0-3.714,0.769-4.854,1.892l-27.787,27.16     c-3.525,3.477-4.987,4.933,16.915,51.149l0.805,1.714l-6.881,16.381l-1.684,0.651C0,159.715,0,161.556,0,166.474v38.418     c0,4.931,0,6.979,48.957,24.524l1.75,0.618l6.882,16.333l-0.739,1.669c-20.812,47.223-19.492,48.501-15.949,52.025L68.62,327.18     c1.162,1.117,3.173,1.915,4.888,1.915c1.552,0,6.272,0,47.3-18.561l1.643-0.769l16.927,6.846l0.658,1.693     c19.293,47.726,21.275,47.726,26.076,47.726h39.217c4.924,0,6.966,0,24.859-47.857l0.667-1.742l16.855-6.814l1.604,0.654     c27.729,11.733,43.925,17.654,48.122,17.654c1.699,0,3.717-0.745,4.876-1.893l27.832-27.219     c3.501-3.495,4.96-4.924-16.981-51.096l-0.816-1.734l6.869-16.31l1.64-0.643c48.938-18.981,48.938-20.831,48.938-25.755v-38.395     C369.793,159.95,369.793,157.914,320.83,140.434z M184.896,247.203c-35.038,0-63.542-27.959-63.542-62.3     c0-34.342,28.505-62.264,63.542-62.264c35.023,0,63.522,27.928,63.522,62.264C248.419,219.238,219.92,247.203,184.896,247.203z"
   id="path2" />
		</g>
	</g>
</g>
<g
   id="g10">
</g>
<g
   id="g12">
</g>
<g
   id="g14">
</g>
<g
   id="g16">
</g>
<g
   id="g18">
</g>
<g
   id="g20">
</g>
<g
   id="g22">
</g>
<g
   id="g24">
</g>
<g
   id="g26">
</g>
<g
   id="g28">
</g>
<g
   id="g30">
</g>
<g
   id="g32">
</g>
<g
   id="g34">
</g>
<g
   id="g36">
</g>
<g
   id="g38">
</g>
<path
   style="fill:#ffffff;stroke-width:0.517192"
   d="m 163.63628,365.41561 c -3.5326,-1.4552 -9.36071,-13.03612 -21.39925,-42.52201 l -2.67729,-6.55745 -8.55686,-3.4236 -8.55687,-3.4236 -10.01766,4.42766 c -22.665309,10.01774 -35.126187,14.7602 -38.773443,14.75672 -1.112851,-0.001 -2.721576,-0.44529 -3.574942,-0.98716 -0.853366,-0.54187 -8.135419,-7.46491 -16.182346,-15.38452 l -14.630768,-14.39929 0.02011,-2.33776 c 0.04048,-4.70607 3.970236,-15.53421 13.957711,-38.45939 l 4.675924,-10.73308 -3.491535,-8.28365 -3.491529,-8.28365 -11.892233,-4.34527 C 15.545043,216.87288 3.5473771,211.48228 1.3444914,208.52045 0.29592855,207.11064 0.25356027,206.41745 0.09585821,188.09139 -0.09725033,165.65086 0.0299529,164.04457 2.1575341,162.05712 5.501042,158.93381 17.36922,153.46688 39.565661,144.82553 c 5.689107,-2.21484 10.613749,-4.28727 10.943647,-4.60539 0.792982,-0.76468 6.899463,-15.28374 6.899463,-16.4045 0,-0.47965 -1.415455,-3.86434 -3.145456,-7.52155 C 48.60367,104.32963 41.521565,88.021122 39.825865,83.04786 38.911711,80.36677 38.130089,77.017307 38.088927,75.604619 l -0.07484,-2.568528 15.257152,-14.912579 c 10.22509,-9.994159 15.829032,-15.106353 16.991078,-15.500105 0.953655,-0.32314 2.594368,-0.449937 3.64602,-0.281771 3.4956,0.558969 14.620805,4.533439 29.530483,10.549742 8.10698,3.271301 15.68495,6.306362 16.83994,6.744578 l 2.09998,0.796765 7.98525,-3.243365 c 4.3919,-1.783851 8.26197,-3.511666 8.60017,-3.839589 0.3382,-0.327923 1.66957,-3.439767 2.95861,-6.915209 4.02621,-10.855252 10.65858,-27.071157 13.31584,-32.556721 1.40092,-2.892038 3.44207,-6.2667135 4.53587,-7.499278 l 1.98874,-2.2410262 h 22.2567 22.2567 l 1.38369,1.292979 c 3.17945,2.9710267 7.79331,12.3740642 17.30591,35.2694502 l 5.30637,12.771617 8.53739,3.415809 8.53741,3.415813 12.21865,-5.40826 c 6.72025,-2.974543 15.70969,-6.800067 19.97652,-8.501165 13.61387,-5.427571 17.18139,-6.185975 20.17047,-4.287953 0.85337,0.541874 8.13542,7.464906 16.18235,15.384517 l 14.63077,14.399292 -0.0201,2.450475 c -0.0358,4.366255 -4.26443,15.950204 -14.17558,38.832993 l -4.44041,10.25197 3.47954,8.30679 3.47953,8.30678 11.63681,4.24048 c 23.93611,8.72237 35.74194,14.00676 37.96258,16.99238 1.04843,1.4096 1.09104,2.10524 1.25142,20.42906 0.19474,22.24896 0.0737,23.82237 -1.99104,25.88714 -3.07982,3.07981 -10.30181,6.49407 -33.01906,15.61003 -8.35494,3.35265 -15.3747,6.28852 -15.59948,6.52414 -0.22478,0.23561 -1.91225,4.01123 -3.74995,8.39025 l -3.34126,7.96185 3.34658,7.0367 c 12.00263,25.23731 17.24162,38.78359 16.42949,42.48119 -0.24527,1.11671 -4.37274,5.46995 -15.30535,16.14255 -8.23323,8.03742 -15.71939,14.92826 -16.6359,15.31297 -3.70358,1.55463 -10.33893,-0.66752 -48.86665,-16.36523 l -3.23286,-1.31719 -8.28821,3.28289 c -4.55851,1.8056 -8.48793,3.53213 -8.73203,3.83675 -0.24411,0.30461 -1.88889,4.394 -3.65509,9.08751 -8.55464,22.73329 -14.23341,35.27181 -17.33369,38.27218 l -1.87044,1.81017 -21.56448,0.10503 c -11.86047,0.0578 -22.05487,-0.097 -22.65423,-0.34388 z m 34.18559,-119.2206 c 15.92046,-3.45992 29.51064,-12.14871 38.85044,-24.83878 5.33636,-7.25055 8.86001,-15.23439 10.84163,-24.56483 1.28095,-6.03133 1.28095,-17.75948 0,-23.79081 -4.4526,-20.96503 -18.68178,-37.99202 -38.3483,-45.88854 -28.21149,-11.3275 -60.5347,-1.59164 -77.50399,23.34446 -7.01288,10.30532 -10.34457,21.39731 -10.34457,34.43949 0,17.14043 5.99593,31.66085 18.05217,43.71708 10.46062,10.46063 22.36924,16.15518 38.80376,18.55547 3.04668,0.44497 16.09702,-0.20163 19.64886,-0.97354 z"
   id="path47" /></svg>
