<?xml version="1.0" encoding="UTF-8" standalone="no"?>
<svg
   xmlns:dc="http://purl.org/dc/elements/1.1/"
   xmlns:cc="http://creativecommons.org/ns#"
   xmlns:rdf="http://www.w3.org/1999/02/22-rdf-syntax-ns#"
   xmlns:svg="http://www.w3.org/2000/svg"
   xmlns="http://www.w3.org/2000/svg"
   xmlns:sodipodi="http://sodipodi.sourceforge.net/DTD/sodipodi-0.dtd"
   xmlns:inkscape="http://www.inkscape.org/namespaces/inkscape"
   version="1.1"
   id="Layer_1"
   x="0px"
   y="0px"
   viewBox="0 0 512 512"
   style="enable-background:new 0 0 512 512;"
   xml:space="preserve"
   sodipodi:docname="play.svg"
   inkscape:version="1.0.2 (e86c870879, 2021-01-15, custom)"
   inkscape:export-filename="/home/antonio/Documentos/Universidad/PLUD/proyecto/img/icons/play.png"
   inkscape:export-xdpi="12"
   inkscape:export-ydpi="12"><metadata
   id="metadata43"><rdf:RDF><cc:Work
       rdf:about=""><dc:format>image/svg+xml</dc:format><dc:type
         rdf:resource="http://purl.org/dc/dcmitype/StillImage" /></cc:Work></rdf:RDF></metadata><defs
   id="defs41" /><sodipodi:namedview
   pagecolor="#ffffff"
   bordercolor="#666666"
   borderopacity="1"
   objecttolerance="10"
   gridtolerance="10"
   guidetolerance="10"
   inkscape:pageopacity="0"
   inkscape:pageshadow="2"
   inkscape:window-width="1920"
   inkscape:window-height="1007"
   id="namedview39"
   showgrid="false"
   inkscape:zoom="1.3964844"
   inkscape:cx="256"
   inkscape:cy="255.28392"
   inkscape:window-x="0"
   inkscape:window-y="0"
   inkscape:window-maximized="1"
   inkscape:current-layer="Layer_1"
   inkscape:document-rotation="0" />
<g
   id="g6">
	<g
   id="g4">
		<path
   d="M256,0C114.833,0,0,114.844,0,256s114.833,256,256,256s256-114.844,256-256S397.167,0,256,0z M357.771,264.969    l-149.333,96c-1.75,1.135-3.771,1.698-5.771,1.698c-1.75,0-3.521-0.438-5.104-1.302C194.125,359.49,192,355.906,192,352V160    c0-3.906,2.125-7.49,5.563-9.365c3.375-1.854,7.604-1.74,10.875,0.396l149.333,96c3.042,1.958,4.896,5.344,4.896,8.969    S360.813,263.01,357.771,264.969z"
   id="path2" />
	</g>
</g>
<g
   id="g8">
</g>
<g
   id="g10">
</g>
<g
   id="g12">
</g>
<g
   id="g14">
</g>
<g
   id="g16">
</g>
<g
   id="g18">
</g>
<g
   id="g20">
</g>
<g
   id="g22">
</g>
<g
   id="g24">
</g>
<g
   id="g26">
</g>
<g
   id="g28">
</g>
<g
   id="g30">
</g>
<g
   id="g32">
</g>
<g
   id="g34">
</g>
<g
   id="g36">
</g>
<path
   style="fill:#ffffff;stroke-width:0.716084"
   d="m 235.59161,510.84041 c -9.92505,-0.795 -24.96103,-3.08473 -34.73007,-5.28882 -21.14806,-4.77141 -37.38792,-10.55764 -57.28671,-20.41111 C 115.5598,471.26802 94.905903,456.28438 73.380907,434.21741 53.036115,413.36037 37.719963,391.63252 25.741453,366.63497 7.0926486,327.7174 -0.89264326,288.42359 0.82070592,244.00559 2.8657259,190.98915 22.719345,138.7175 57.175045,95.632921 69.370192,80.383692 91.532825,59.478557 107.40593,48.252107 c 23.2512,-16.4447 50.99454,-30.040348 76.26959,-37.37599 62.44878,-18.1246607 126.91273,-12.6522137 184.34675,15.649487 27.05753,13.333111 45.88333,26.85053 67.76686,48.658374 14.10052,14.051757 20.2693,21.300933 30.1675,35.450992 19.639,28.07508 34.22934,62.23787 40.60887,95.08427 3.97979,20.49083 4.34635,24.73139 4.34635,50.28076 0,25.54937 -0.36656,29.78993 -4.34635,50.28076 -5.03949,25.9469 -16.00476,54.7808 -29.68876,78.06857 -21.13617,35.97003 -50.39265,66.03772 -86.43774,88.83445 -10.41998,6.59012 -34.18717,18.26139 -46.00264,22.59036 -34.71098,12.71746 -72.63406,17.96677 -108.84475,15.06627 z m 47.84701,-197.54949 c 49.62374,-31.91964 76.67647,-49.73366 77.69511,-51.16165 2.30525,-3.23167 2.19302,-9.39392 -0.22744,-12.48774 -1.11222,-1.42165 -30.66976,-20.85473 -78.04681,-51.31314 l -76.2566,-49.02489 h -4.15154 c -3.84166,0 -4.37666,0.20997 -7.16718,2.81295 l -3.01563,2.81294 v 100.9722 100.9722 l 2.14825,2.26968 c 2.88387,3.04686 4.30986,3.57719 8.95105,3.32896 3.877,-0.20737 5.12653,-0.97485 80.07079,-49.18151 z"
   id="path45" /></svg>
