<?xml version="1.0" encoding="UTF-8" standalone="no"?>
<svg
   version="1.2"
   viewBox="0 0 512 512"
   width="512"
   height="512"
   id="svg8"
   sodipodi:docname="podium_number_3.svg"
   inkscape:export-filename="/home/antonio/Documentos/PLUD/proyecto/img/icons/podium_number_3.png"
   inkscape:export-xdpi="12"
   inkscape:export-ydpi="12"
   inkscape:version="1.1 (c4e8f9ed74, 2021-05-24)"
   xmlns:inkscape="http://www.inkscape.org/namespaces/inkscape"
   xmlns:sodipodi="http://sodipodi.sourceforge.net/DTD/sodipodi-0.dtd"
   xmlns="http://www.w3.org/2000/svg"
   xmlns:svg="http://www.w3.org/2000/svg">
  <defs
     id="defs12" />
  <sodipodi:namedview
     id="namedview10"
     pagecolor="#ffffff"
     bordercolor="#666666"
     borderopacity="1.0"
     inkscape:pageshadow="2"
     inkscape:pageopacity="0.0"
     inkscape:pagecheckerboard="0"
     showgrid="false"
     inkscape:zoom="1.2890625"
     inkscape:cx="255.61212"
     inkscape:cy="255.61212"
     inkscape:window-width="1920"
     inkscape:window-height="1005"
     inkscape:window-x="0"
     inkscape:window-y="0"
     inkscape:window-maximized="1"
     inkscape:current-layer="svg8" />
  <title
     id="title2">podium_number_3</title>
  <style
     id="style4">
		tspan { white-space:pre }
		.shp0 { fill: #ffffff } 
		.shp1 { fill: #33323d } 
	</style>
  <path
     id="Background"
     class="shp0"
     d="M256 512C114.43 512 0 397.57 0 256C0 114.43 114.43 0 256 0C397.57 0 512 114.43 512 256C512 397.57 397.57 512 256 512Z" />
  <path
     id="3 "
     class="shp1"
     d="M312.8 238.09C323.16 241.58 330.87 247.33 335.94 255.32C341.01 263.21 343.54 281.79 343.54 311.07C343.54 332.81 341.07 349.7 336.11 361.75C331.15 373.69 322.6 382.81 310.43 389.11C298.27 395.31 282.67 398.41 263.64 398.41C242.02 398.41 225.01 394.8 212.62 387.59C200.35 380.27 192.24 371.38 188.3 360.9C184.47 350.32 182.55 332.02 182.55 306L182.55 284.38L250.8 284.38L250.8 328.81C250.8 340.63 251.48 348.18 252.83 351.44C254.29 354.6 257.45 356.17 262.29 356.17C267.58 356.17 271.07 354.15 272.76 350.09C274.45 346.04 275.3 335.45 275.3 318.33L275.3 299.41C275.3 288.94 274.11 281.28 271.75 276.44C269.38 271.6 265.89 268.44 261.27 266.98C256.66 265.4 247.7 264.5 234.42 264.28L234.42 224.58C250.63 224.58 260.66 223.96 264.48 222.72C268.31 221.48 271.07 218.78 272.76 214.61C274.45 210.45 275.3 203.91 275.3 195.02L275.3 179.81C275.3 170.24 274.28 163.93 272.26 160.89C270.34 157.85 267.3 156.33 263.13 156.33C258.4 156.33 255.14 157.97 253.34 161.23C251.65 164.38 250.8 171.2 250.8 181.67L250.8 204.14L182.55 204.14L182.55 180.83C182.55 154.7 188.52 137.07 200.46 127.95C212.4 118.72 231.37 114.1 257.39 114.1C289.94 114.1 312.01 120.46 323.61 133.19C335.21 145.92 341.01 163.6 341.01 186.23C341.01 201.55 338.93 212.64 334.76 219.51C330.59 226.27 323.27 232.46 312.8 238.09Z" />
</svg>
