<?xml version="1.0" encoding="UTF-8" standalone="no"?>
<svg
   xmlns:dc="http://purl.org/dc/elements/1.1/"
   xmlns:cc="http://creativecommons.org/ns#"
   xmlns:rdf="http://www.w3.org/1999/02/22-rdf-syntax-ns#"
   xmlns:svg="http://www.w3.org/2000/svg"
   xmlns="http://www.w3.org/2000/svg"
   xmlns:sodipodi="http://sodipodi.sourceforge.net/DTD/sodipodi-0.dtd"
   xmlns:inkscape="http://www.inkscape.org/namespaces/inkscape"
   version="1.1"
   id="Capa_1"
   x="0px"
   y="0px"
   width="423.576px"
   height="423.576px"
   viewBox="0 0 423.576 423.576"
   style="enable-background:new 0 0 423.576 423.576;"
   xml:space="preserve"
   sodipodi:docname="practice.svg"
   inkscape:version="1.0.2 (e86c870879, 2021-01-15, custom)"><metadata
   id="metadata65"><rdf:RDF><cc:Work
       rdf:about=""><dc:format>image/svg+xml</dc:format><dc:type
         rdf:resource="http://purl.org/dc/dcmitype/StillImage" /></cc:Work></rdf:RDF></metadata><defs
   id="defs63" /><sodipodi:namedview
   pagecolor="#ffffff"
   bordercolor="#666666"
   borderopacity="1"
   objecttolerance="10"
   gridtolerance="10"
   guidetolerance="10"
   inkscape:pageopacity="0"
   inkscape:pageshadow="2"
   inkscape:window-width="1920"
   inkscape:window-height="1007"
   id="namedview61"
   showgrid="false"
   inkscape:zoom="1.6880088"
   inkscape:cx="211.78799"
   inkscape:cy="211.19558"
   inkscape:window-x="0"
   inkscape:window-y="0"
   inkscape:window-maximized="1"
   inkscape:current-layer="Capa_1" />
<g
   id="g28">
	<g
   id="g26">
		<g
   id="g4">
			<path
   d="M300,211.787c0,44.15-32.604,80.828-75,87.225v48.924c69.25-6.668,123.576-65.18,123.576-136.147     S294.249,82.308,225,75.641v48.924C267.396,130.959,300,167.636,300,211.787z"
   id="path2" />
		</g>
		<g
   id="g8">
			<path
   d="M75,211.787c0,70.969,54.327,129.479,123.576,136.146V299.01c-42.395-6.396-75-43.072-75-87.224     c0-44.151,32.605-80.828,75-87.223V75.638C129.327,82.308,75,140.818,75,211.787z"
   id="path6" />
		</g>
		<g
   id="g12">
			<path
   d="M273.576,211.787c0-29.535-20.835-54.283-48.576-60.353v120.705C252.741,266.07,273.576,241.322,273.576,211.787z"
   id="path10" />
		</g>
		<g
   id="g16">
			<path
   d="M150,211.787c0,29.535,20.835,54.283,48.576,60.352V151.435C170.835,157.504,150,182.252,150,211.787z"
   id="path14" />
		</g>
		<g
   id="g20">
			<path
   d="M48.576,211.787c0-85.547,66.16-155.926,150-162.675V0.424C87.928,7.268,0,99.445,0,211.787     S87.928,416.306,198.576,423.15v-48.688C114.736,367.713,48.576,297.334,48.576,211.787z"
   id="path18" />
		</g>
		<g
   id="g24">
			<path
   d="M423.576,211.787C423.576,99.445,335.648,7.268,225,0.424v48.688c83.84,6.749,150,77.129,150,162.676     s-66.16,155.927-150,162.676v48.688C335.648,416.306,423.576,324.129,423.576,211.787z"
   id="path22" />
		</g>
	</g>
</g>
<g
   id="g30">
</g>
<g
   id="g32">
</g>
<g
   id="g34">
</g>
<g
   id="g36">
</g>
<g
   id="g38">
</g>
<g
   id="g40">
</g>
<g
   id="g42">
</g>
<g
   id="g44">
</g>
<g
   id="g46">
</g>
<g
   id="g48">
</g>
<g
   id="g50">
</g>
<g
   id="g52">
</g>
<g
   id="g54">
</g>
<g
   id="g56">
</g>
<g
   id="g58">
</g>
<path
   style="fill:#ffffff;stroke-width:0.592414"
   d="M 184.83316,421.51346 C 150.55818,416.9662 118.51537,404.43942 90.071763,384.46757 71.199415,371.21624 52.545671,352.51061 38.68378,332.93665 15.757039,300.5625 2.1888245,260.85346 0.67896743,221.71093 -0.25852401,197.40678 2.1522294,176.13298 8.3156669,154.32055 22.773676,103.15357 56.338896,59.255415 102.80551,30.742337 111.19562,25.593954 128.59967,17.143677 138.02341,13.642809 155.4955,7.1520278 175.80265,2.5639829 193.36752,1.138778 l 5.09116,-0.41309387 V 24.741751 48.757818 l -3.70259,0.391213 C 127.27701,56.278836 70.86062,104.73014 53.666526,170.31902 c -4.178065,15.93772 -4.775701,21.1929 -4.749668,41.76518 0.02182,17.24571 0.118785,18.8883 1.591136,26.95484 0.862343,4.7245 2.498321,11.95964 3.635506,16.07808 15.276961,55.32723 58.90125,99.03058 114.04799,114.2547 6.80122,1.87758 19.86918,4.37538 26.2684,5.02093 l 3.99879,0.40339 v 23.94561 23.94562 l -2.81397,-0.0564 c -1.54768,-0.031 -6.41288,-0.5339 -10.81155,-1.11748 z"
   id="path67" /><path
   style="fill:#ffffff;stroke-width:0.592414"
   d="M 188.86502,346.23918 C 161.4137,341.40383 137.32335,329.1472 117.35954,309.85878 100.2933,293.36991 88.537674,274.43309 81.486657,252.07214 c -4.306826,-13.65827 -5.904859,-24.56037 -5.904859,-40.28415 0,-16.34051 1.651215,-27.08282 6.439458,-41.89321 13.225698,-40.90807 45.965574,-73.935464 86.703114,-87.464534 7.8619,-2.610963 19.34189,-5.258053 26.33464,-6.072321 l 3.4131,-0.397437 -0.15482,24.160312 -0.15482,24.16031 -5.03552,1.02533 c -16.39201,3.33771 -30.79239,11.25944 -43.58906,23.97859 -13.0832,13.00394 -20.68047,27.04952 -24.65475,45.58087 -1.83854,8.57274 -1.83854,25.27145 0,33.84419 3.67162,17.1201 11.20882,31.71461 22.51388,43.59428 12.8833,13.53815 28.41629,22.36146 45.62873,25.91877 l 5.13672,1.06161 0.15475,24.08302 0.15475,24.08302 -1.63578,-0.0479 c -0.89968,-0.0263 -4.48671,-0.55001 -7.97117,-1.16377 z"
   id="path69" /><path
   style="fill:#ffffff;stroke-width:0.592414"
   d="m 192.17631,269.93453 c -20.7203,-7.21309 -36.2157,-24.83992 -40.63809,-46.22798 -1.53042,-7.40159 -1.24657,-19.89218 0.60978,-26.83283 4.55149,-17.01747 16.10086,-31.5401 31.42169,-39.51087 4.14697,-2.1575 12.71447,-5.40867 14.25293,-5.40867 0.44894,0 0.63606,17.6021 0.63606,59.83381 0,47.47634 -0.15294,59.83218 -0.74052,59.82589 -0.40728,-0.004 -2.90112,-0.76007 -5.54185,-1.67935 z"
   id="path71" /><path
   style="fill:#ffffff;stroke-width:0.592414"
   d="m 225.11731,211.78799 v -59.92795 l 1.92534,0.4139 c 3.27746,0.70456 9.42696,3.18466 13.96558,5.63233 14.80945,7.98672 25.95085,22.25876 30.41976,38.96745 1.85146,6.92238 2.14046,19.43924 0.61792,26.76255 -3.05317,14.68556 -11.3413,27.86316 -23.3363,37.10325 -5.69871,4.38988 -15.75262,9.29111 -21.66696,10.56253 l -1.92534,0.4139 z"
   id="path73" /><path
   style="fill:#ffffff;stroke-width:0.592414"
   d="m 225.25872,323.43178 0.1548,-24.1369 5.03551,-1.02533 c 16.42856,-3.34515 30.96549,-11.33124 43.5842,-23.94367 13.12864,-13.12209 20.72549,-27.18023 24.65025,-45.61579 1.83522,-8.62047 1.84082,-25.32695 0.0114,-33.84419 -3.9755,-18.50824 -11.54077,-32.50148 -24.66162,-45.61579 -12.61871,-12.61243 -27.15564,-20.59852 -43.5842,-23.94367 l -5.03551,-1.02533 -0.1548,-24.1369 -0.1548,-24.136903 3.70928,0.409778 c 16.75244,1.850705 37.83834,9.222143 53.58207,18.731808 23.22732,14.029967 43.11424,36.643867 54.12048,61.541717 8.03992,18.18758 11.47844,34.69273 11.47844,55.09738 0,19.89436 -3.00855,34.89933 -10.65845,53.15848 -10.69258,25.52154 -31.08364,49.07042 -54.99841,63.51563 -15.63101,9.44157 -36.85443,16.85524 -53.52413,18.69681 l -3.70928,0.40977 z"
   id="path75" /><path
   style="fill:#ffffff;stroke-width:0.592414"
   d="m 225.11731,398.75277 v -23.9346 l 3.70259,-0.39791 c 36.52797,-3.92562 70.05233,-19.58814 96.31152,-44.99658 27.43984,-26.55084 44.6014,-61.06532 48.98143,-98.50906 1.14404,-9.78015 1.14128,-28.49671 -0.006,-38.30157 C 365.25848,116.96766 304.63547,57.104359 228.8199,49.146456 l -3.70259,-0.388638 V 24.741751 0.72568413 l 5.09116,0.41309387 c 12.45269,1.0104053 27.84632,3.9210107 41.12617,7.7760771 11.27289,3.2724589 20.96975,7.1296959 33.46235,13.3107289 23.14205,11.45012 40.13354,23.774164 58.08652,42.130549 34.15221,34.919617 54.67891,79.011927 59.49448,127.796867 0.78081,7.91014 0.78081,31.35984 0,39.26999 -4.13909,41.93175 -19.83864,80.25397 -46.44125,113.36194 -6.62193,8.24124 -20,21.80685 -28.62378,29.02504 -13.70013,11.46714 -25.56956,19.15576 -42.51597,27.54044 -17.18015,8.50031 -31.87279,13.62256 -50.13488,17.47838 -7.31072,1.54356 -23.80617,3.85858 -27.49401,3.85858 h -2.05079 z"
   id="path77"
   inkscape:export-xdpi="14.560563"
   inkscape:export-ydpi="14.560563" /></svg>
