<?xml version="1.0" encoding="iso-8859-1"?>
<!-- Generator: Adobe Illustrator 16.0.0, SVG Export Plug-In . SVG Version: 6.00 Build 0)  -->
<!DOCTYPE svg PUBLIC "-//W3C//DTD SVG 1.1//EN" "http://www.w3.org/Graphics/SVG/1.1/DTD/svg11.dtd">
<svg version="1.1" id="Capa_1" xmlns="http://www.w3.org/2000/svg" xmlns:xlink="http://www.w3.org/1999/xlink" x="0px" y="0px"
	 width="423.576px" height="423.576px" viewBox="0 0 423.576 423.576" style="enable-background:new 0 0 423.576 423.576;"
	 xml:space="preserve">
<g>
	<g>
		<g>
			<path d="M300,211.787c0,44.15-32.604,80.828-75,87.225v48.924c69.25-6.668,123.576-65.18,123.576-136.147
				S294.249,82.308,225,75.641v48.924C267.396,130.959,300,167.636,300,211.787z"/>
		</g>
		<g>
			<path d="M75,211.787c0,70.969,54.327,129.479,123.576,136.146V299.01c-42.395-6.396-75-43.072-75-87.224
				c0-44.151,32.605-80.828,75-87.223V75.638C129.327,82.308,75,140.818,75,211.787z"/>
		</g>
		<g>
			<path d="M273.576,211.787c0-29.535-20.835-54.283-48.576-60.353v120.705C252.741,266.07,273.576,241.322,273.576,211.787z"/>
		</g>
		<g>
			<path d="M150,211.787c0,29.535,20.835,54.283,48.576,60.352V151.435C170.835,157.504,150,182.252,150,211.787z"/>
		</g>
		<g>
			<path d="M48.576,211.787c0-85.547,66.16-155.926,150-162.675V0.424C87.928,7.268,0,99.445,0,211.787
				S87.928,416.306,198.576,423.15v-48.688C114.736,367.713,48.576,297.334,48.576,211.787z"/>
		</g>
		<g>
			<path d="M423.576,211.787C423.576,99.445,335.648,7.268,225,0.424v48.688c83.84,6.749,150,77.129,150,162.676
				s-66.16,155.927-150,162.676v48.688C335.648,416.306,423.576,324.129,423.576,211.787z"/>
		</g>
	</g>
</g>
<g>
</g>
<g>
</g>
<g>
</g>
<g>
</g>
<g>
</g>
<g>
</g>
<g>
</g>
<g>
</g>
<g>
</g>
<g>
</g>
<g>
</g>
<g>
</g>
<g>
</g>
<g>
</g>
<g>
</g>
</svg>
